<svg xmlns="http://www.w3.org/2000/svg" viewBox="0 0 657.85 440.34"><defs><style>.cls-1,.cls-2{fill:#20a8da;}.cls-2,.cls-3{stroke:#fff;stroke-miterlimit:10;stroke-width:3px;}.cls-3{fill:none;}</style></defs><g id="Layer_2" data-name="Layer 2"><g id="Layer_1-2" data-name="Layer 1"><rect class="cls-1" width="657.85" height="440.34"/><path class="cls-2" d="M243,265.39a94.83,94.83,0,0,1,47.84-5.65c3.13.45,6.36,1,9.69,1.76a43.38,43.38,0,0,1,4.86,1.69"/><path class="cls-2" d="M420,363.05c9.24-2.19,29-6.7,45.62-9.38,5.91-1,11.44-1.69,16-2,.82-.06,1.6-.1,2.35-.13"/><path class="cls-2" d="M508.51,354.89c16.35,4.12,29.25,12.76,60.37,39.39l.71.61"/><path class="cls-2" d="M326.77,275.6a121.05,121.05,0,0,1,30.61,35.14q3.15,5.33,6.06,11.39c11.1,23.24,22.78,34,32.19,38.93"/><path class="cls-2" d="M221.78,276.92A97.56,97.56,0,0,0,208.87,288c-13.25,13.57-35.59,35.26-55.27,48.69-10.47,7.14-20.19,12-27.38,12-28,0-60.63-24.26-60.63-24.26"/><circle class="cls-3" cx="55.21" cy="320.33" r="12.38"/><circle class="cls-3" cx="231.1" cy="268.77" r="12.38"/><circle class="cls-3" cx="316.45" cy="268.77" r="12.38"/><circle class="cls-3" cx="407.67" cy="363.92" r="12.38"/><circle class="cls-3" cx="496.19" cy="353.59" r="12.38"/><circle class="cls-3" cx="579.12" cy="401.24" r="12.38"/></g></g></svg>