<svg xmlns="http://www.w3.org/2000/svg" viewBox="0 0 658.46 440.34"><defs><style>.cls-1{fill:#f8cb00;}.cls-2{fill:#f9d634;}.cls-3{fill:none;stroke:#fff;stroke-miterlimit:10;stroke-width:3px;}</style></defs><g id="Layer_2" data-name="Layer 2"><g id="Layer_1-2" data-name="Layer 1"><rect class="cls-1" x="0.04" width="657.85" height="440.34"/><path class="cls-2" d="M657.51,361.24v79.1H0V276.71l166.54-3.83c19,0,56.18,1.93,82.84,15.47,37.31,18.95,34.26,55.33,101.27,66.7s76.14,1.51,94.42,14.4,57.1,44.71,102.79,43.95C587.77,412.75,643.87,371.68,657.51,361.24Z"/><path class="cls-3" d="M657.51,358.84s-1.08.87-3.06,2.4C640.86,371.68,585,412.75,545.29,413.4c-45.51.76-84.18-31.07-102.38-43.95s-27.3-3-94-14.4S285.18,307.3,248,288.35c-26.55-13.54-63.54-15.47-82.5-15.47-7.59,0-12.3.31-12.3.31L0,277.74"/></g></g></svg>